<?xml version="1.0" encoding="utf-8"?>
<!-- Generator: Adobe Illustrator 21.0.0, SVG Export Plug-In . SVG Version: 6.00 Build 0)  -->
<svg version="1.1" id="图层_1" xmlns="http://www.w3.org/2000/svg" xmlns:xlink="http://www.w3.org/1999/xlink" x="0px" y="0px"
	 viewBox="0 0 1024 1024" style="enable-background:new 0 0 1024 1024;" xml:space="preserve">
<g>
	<path d="M927.9,760.4l-2,1.3L559.6,957.4c-4.3,2.3-9.5,2.4-13.9,0.2c-4.4-2.2-7.5-6.4-8.3-11.2l-0.2-2.5V503
		c0-5.1,2.5-9.8,6.6-12.6l2.2-1.2l366.3-172.7c2-1,4.2-1.5,6.5-1.5c7.6,0,13.9,5.5,15.1,12.8l0.2,2.5v417.9
		C934,753,931.8,757.5,927.9,760.4z M834.8,463.1l-198.5,99.2V612l198.5-99.2V463.1z M834.8,612l-198.5,99.2v49.6l198.5-99.2V612z
		 M924.1,242.9l-404.6,169c-4,1.7-8.6,1.7-12.7,0L99.6,245.6c-5.9-2.4-9.7-8.1-9.6-14.2c0.1-6.2,4.1-11.6,10.1-13.9L507.3,65.7
		c3.7-1.4,7.8-1.4,11.6,0l404.6,149c6,2.2,10,7.7,10.2,13.9C933.8,234.8,930,240.4,924.1,242.9z M112.5,314.9L478.7,492
		c5.3,2.6,8.7,8,8.7,13.9v438c0,5.3-2.7,10.2-7.2,13c-4.5,2.8-10,3.1-14.8,0.8L99.2,777.5c-5.2-2.6-8.6-7.9-8.6-13.8v-435
		c0-5.3,2.7-10.2,7.1-13C102.2,312.9,107.7,312.6,112.5,314.9z"/>
</g>
</svg>
