<?xml version="1.0" encoding="utf-8"?>
<!-- Generator: Adobe Illustrator 21.0.0, SVG Export Plug-In . SVG Version: 6.00 Build 0)  -->
<svg version="1.1" id="图层_1" xmlns="http://www.w3.org/2000/svg" xmlns:xlink="http://www.w3.org/1999/xlink" x="0px" y="0px"
	 viewBox="0 0 1024 1024" style="enable-background:new 0 0 1024 1024;" xml:space="preserve">
<g>
	<path d="M903.4,903.4H120.6c-38.5,0-55.9-27.7-55.9-55.9V344.3V176.5c0-34.4,20.5-55.9,55.9-55.9l272.5,0.9
		c35.3,0,67.8,20.9,83.2,53.9l42.8,92.1c15.4,33,69.3,76.8,104.7,76.8h279.6c51.1,0,55.9,3.4,55.9,55.9v447.3
		C959.3,903.4,941.8,903.4,903.4,903.4z M802.7,623.8H221c-24.5,0-44.2,24.8-44.2,55.5c-0.4,30.7,19.8,55.5,44.2,55.5h581.8
		c24.5,0,44.2-24.8,44.2-55.5C847,648.6,827.2,623.8,802.7,623.8z M946.5,287.6H618.8c-7.4,0-14.1-4.7-17.4-11.7l-31.8-70.1
		c-6.3-13.7,3.3-29.3,17.4-29.3h279.2c50.7,0,92.6,43.8,92.6,97.8C958.7,281.4,953.2,287.3,946.5,287.6z"/>
</g>
</svg>
