<?xml version="1.0" encoding="utf-8"?>
<!-- Generator: Adobe Illustrator 21.0.0, SVG Export Plug-In . SVG Version: 6.00 Build 0)  -->
<svg version="1.1" id="图层_1" xmlns="http://www.w3.org/2000/svg" xmlns:xlink="http://www.w3.org/1999/xlink" x="0px" y="0px"
	 viewBox="0 0 1024 1024" style="enable-background:new 0 0 1024 1024;" xml:space="preserve">
<g>
	<path d="M802.5,935.3c-32.8,0-59.1-6.8-85.4-27.1l-6.6-6.8c-59.1-40.7-124.8-61.1-197.1-61.1c-39.4,0-78.8,6.8-118.3,20.4
		c19.7-33.9,26.3-61.1,19.7-95c0-27.1,0-54.3,6.6-81.4c26.3,6.8,59.1,13.6,92,13.6c72.3,0,138-27.1,197.1-54.3
		c26.3-20.3,59.1-33.9,92-33.9c85.4,0,157.7,74.6,157.7,162.8C960.2,860.7,887.9,935.3,802.5,935.3z M802.5,704.6
		c-32.8,0-59.1,27.1-59.1,61.1c0,33.9,26.3,61.1,59.1,61.1c32.9,0,59.1-27.1,59.1-61.1C861.6,731.8,835.4,697.8,802.5,704.6z
		 M638.3,636.8c-13.1-33.9-19.7-61.1-39.4-95c-32.9-61.1-85.4-108.5-151.1-142.5c-26.3-13.6-52.6-33.9-72.3-67.8
		c-39.4-74.6-19.7-183.2,59.1-223.9S605.4,94.1,658,168.7c13.1,33.9,19.7,61.1,19.7,95v6.8c-6.6,67.8,13.1,142.5,46,203.5
		c19.7,40.7,46,67.8,78.8,95c-39.4,6.8-65.7,13.6-92,33.9C684.3,616.4,664.6,630,638.3,636.8z M566,216.2
		c-19.7-27.1-52.6-40.7-85.4-20.4c-26.3,20.4-39.4,61.1-19.7,88.2c19.7,27.1,52.6,40.7,85.4,20.4C579.2,290.8,585.7,243.3,566,216.2
		z M421.5,419.7c26.3,13.6,46,27.1,65.7,47.5c-19.7,20.4-46,47.5-59.1,74.6c-39.4,67.8-52.6,135.7-46,203.5
		c6.6,33.9,0,67.8-19.7,101.8c-46,74.6-138,108.5-216.8,61.1C66.7,860.7,40.5,765.7,86.4,684.3c13.1-33.9,39.4-54.3,65.7-67.8h6.6
		C217.8,582.5,270.4,535,309.8,474c19.7-40.7,32.8-74.6,39.4-115.3C368.9,385.8,388.6,406.1,421.5,419.7z M257.2,711.4
		c-32.8-20.4-65.7-13.6-85.4,20.4c-19.7,33.9-13.1,67.8,19.7,88.2c32.8,20.4,72.3,6.8,85.4-20.4
		C296.7,765.7,290.1,731.8,257.2,711.4z"/>
</g>
</svg>
