<?xml version="1.0" encoding="utf-8"?>
<!-- Generator: Adobe Illustrator 21.0.0, SVG Export Plug-In . SVG Version: 6.00 Build 0)  -->
<svg version="1.1" id="图层_1" xmlns="http://www.w3.org/2000/svg" xmlns:xlink="http://www.w3.org/1999/xlink" x="0px" y="0px"
	 viewBox="0 0 1024 1024" style="enable-background:new 0 0 1024 1024;" xml:space="preserve">
<g>
	<path d="M903.4,597.3h-61.1c-5,0.7-9.8,2.1-14.3,4.2c-6.3,2.5-13.2,6.3-18.5,11.3c-4.6,5.2-8.6,10.4-11.3,16.4l-50.5-49.8
		c6.1-20.7,9.6-43.6,9.6-66.6c0.3-135.4-109.1-245.5-244.5-246.1c-65.2-0.2-127.8,25.6-173.9,71.6c-46.2,46-72.1,108.5-72.1,173.7
		c-0.2,65,25.5,127.4,71.5,173.5c45.9,46,108.3,71.9,173.3,71.8c23.1,0.1,46.2-3.1,68.4-9.4l50.2,50.1c-1.2,0.5-2.1,0.5-3.2,1.3
		c-0.1,0-0.4,0-1,0.2c-0.4,0-0.4,0-1.4,0.6c-0.8,0.5-2,1.5-3.3,1.7c-4.1,2.9-7.8,6.2-11.2,9.8c-0.8,0.4-1.3,1.5-1.7,1.7
		c-7.2,8.5-11.6,19-12.8,30.1v12.2l-0.6,30.7v18c-4.1,29.7-28,52.7-57.8,55.9h-52.6c-29.8-3.1-53.7-26.7-57.3-56.9v-47.6l0.2-13.1
		c-1.4-12.6-7.2-24.3-16.2-33.2c-11.2-11.4-26.8-17.5-42.8-16.7c-1.2,0.6-2.5,0.6-3.9,0.6h-0.4c-1.7,0.4-3.2,0.6-4.6,1h-0.5
		c-1.4,0-2.6,0.7-4.4,1.3c-2.1,0.6-3.2,1.2-4.8,1.3c-0.2,0.4-0.7,0.6-1.4,1c-1.1,0.6-2.4,0.7-3.5,1.3c-0.8,0.5-1.7,1.3-2.3,1.7
		c-0.8,0.6-1,0.6-2,0.8c-0.9,1.2-2.1,1.7-3.3,2.9c-0.4,0.2-0.6,0.2-0.6,0.6L306.4,835l-12.7,12.7c-24,18.3-57.4,18-81-0.8
		l-37.1-37.4c-18.4-23.7-18.6-56.8-0.7-80.8l12.8-12.7l21.4-20.9l9.4-9.1c7.9-9.9,12.2-22.2,12.2-34.9c0-25.3-16.6-46.7-39.6-53.8
		c-1.5-0.2-2.3-0.6-3.6-1.2H186c-1.5-0.6-3.6-0.6-5.1-0.8l-42.5-0.6h-18.3c-29.7-4-53.2-27.7-56.2-57.7l0.2-52.4
		c3.4-29.6,26.9-53.4,56.8-57.6h60.9c12.5-1.4,24.1-7.1,32.9-16c12.5-12,18.5-29.3,16-46.5c0-1.7-0.2-3.4-0.7-5c0-1.7-0.9-3-1.1-4.7
		c-0.2-0.5-0.3-1.1-0.3-1.5c-0.8-1.2-1.1-2.5-1.6-3.3c-0.3-0.5-0.5-1.2-0.5-1.7c-0.7-1-1.3-2.3-1.8-3.1c0-0.6-1-1.6-1-1.7
		c-0.6-0.8-0.9-1.9-1.3-2.5c-0.8-1-1.1-1.8-1.5-2l-1.7-2.7l-30.1-30l-12.8-12.7c-18-24.1-17.6-57.4,1.1-81l37.4-36.8
		c23.5-18.8,56.7-19.2,80.6-1l12.8,13l21.2,20.7l9.5,9.6c20.8,16.5,50.4,16.1,70.6-1.1c5.7-4.6,10.4-10.3,13.6-16.9v-0.2
		c0.7-1.6,1.7-2.9,2.2-4.6c0.7-1,1.1-3.1,1.6-4.4c0,0,0-0.6,0.6-0.6c0.2-1.3,0.4-2.9,0.8-4.4v-0.6c0.1-1.4,0.7-3.1,0.9-4.6v-60.8
		c4.4-29.8,28.2-52.9,58.2-56.2h52c30,3.2,53.9,26.6,57.6,56.6v61.5c1.6,12.3,7.1,23.8,15.6,32.8c5.1,5,11.1,9,17.6,11.9
		c18.9,8.2,40.7,5.4,56.8-7.4h0.4l29.5-30.4l13.3-12.8c24.3-18,57.6-17.5,81.4,1.2l36.5,37.4c18.7,23.5,19,56.8,0.7,80.6l-12.5,12.7
		L815,328.8l-9.4,9.6c-4.1,5-7.2,10.8-9,17.1c-8.5,23.8,0.5,50.4,21.7,64.1c0.2,0.4,0.4,0.6,1,0.6c7.1,4.7,15.3,7.6,23.8,8.5h0.3
		l42.6,0.4h18.2c29.7,4.1,52.7,27.9,55.9,57.7v53.1C956.5,569.7,933.2,593.3,903.4,597.3z M512.1,699.4
		c-49.6-0.1-97.2-19.8-132.3-55c-35-35.1-54.7-82.7-54.6-132.4c0-17.5,2.3-34.3,6.7-50.1l79.7,80.2c33.2,32.8,89.3,30.3,125.1-5.4
		c36-35.8,38.5-91.8,5.4-125.1l-80-79.7c16.3-4.5,33-6.7,49.9-6.7c49.6-0.1,97.1,19.6,132.2,54.6c35.1,35.1,54.7,82.6,54.6,132.2
		c0,28.6-6.4,55.9-18,80.2l180.2,178c22.4,22.5,20.6,61.1-3.9,85.5c-24.6,24.9-62.8,26.3-85.8,3.8L592.1,681.2
		C567.1,693.3,539.8,699.5,512.1,699.4z M812.6,842.8c8.4,0,16.5-3.3,22.5-9.3c6-6,9.3-14.1,9.2-22.5c-0.1-8.3-3.4-16.3-9.4-22.2
		c-5.9-5.8-14-9.1-22.3-9c-17.4-0.1-31.6,13.8-32.1,31.1C780.7,828.6,795,842.8,812.6,842.8z"/>
</g>
</svg>
