<?xml version="1.0" encoding="utf-8"?>
<!-- Generator: Adobe Illustrator 21.0.0, SVG Export Plug-In . SVG Version: 6.00 Build 0)  -->
<svg version="1.1" id="图层_1" xmlns="http://www.w3.org/2000/svg" xmlns:xlink="http://www.w3.org/1999/xlink" x="0px" y="0px"
	 viewBox="0 0 1024 1024" style="enable-background:new 0 0 1024 1024;" xml:space="preserve">
<g>
	<path d="M180.7,593.7v298.8c0,24.5,16.6,39.5,41.5,39.5h174V701c0-27.8,20.8-47.5,49.1-47.5h131.7c28.2,0,53.5,19.8,53.5,47.5v231
		H800c24.9,0,42.3-15,42.3-39.5V586L515.5,264.9L180.7,593.7z M180.7,593.7"/>
	<path d="M945.3,495.2L550.2,106.5c-10.5-10.3-24.3-15-38.1-14.5c-13.8-0.5-27.7,4.2-38.1,14.5L78.8,495.2
		c-19.9,19.5-19.9,51.5,0,71.1c19.8,19.6,52.4,19.6,72.3,0l361-355.2l361,355.2c19.9,19.6,52.4,19.6,72.3,0
		C965.1,546.8,965.1,514.9,945.3,495.2L945.3,495.2z M945.3,495.2"/>
</g>
</svg>
