<?xml version="1.0" encoding="utf-8"?>
<!-- Generator: Adobe Illustrator 21.0.0, SVG Export Plug-In . SVG Version: 6.00 Build 0)  -->
<svg version="1.1" id="图层_1" xmlns="http://www.w3.org/2000/svg" xmlns:xlink="http://www.w3.org/1999/xlink" x="0px" y="0px"
	 viewBox="0 0 1024 1024" style="enable-background:new 0 0 1024 1024;" xml:space="preserve">
<g>
	<path d="M736,372c0,0,0,100.7,0,168c0,51.5-42.1,56-56,56c-37.2,0-286.4,0-335.9,0c-49.6,0-56-50.7-56-56V372l-223.9,0.2v509.4
		c0,27.6,22.8,49.9,50.9,49.9h793.8c28.1,0,50.9-22.4,50.9-49.9V372.2L736,372z M729.1,812.4c-3.9,5.2-9.3,8.1-14.9,8.1H588.2
		c-11.6,0-21-12.4-21-27.8c0-15.4,9.4-27.8,21-27.8h126.1c5.6,0,10.9,2.9,14.9,8.2c3.9,5.2,6.1,12.3,6.1,19.6S733,807.2,729.1,812.4
		z M820,820.6c-15.6,0-28.3-12.4-28.3-27.8c0-15.4,12.7-27.8,28.3-27.8c7.5,0,14.7,2.9,20,8.2c5.3,5.2,8.3,12.3,8.3,19.6
		C848.3,808.1,835.6,820.6,820,820.6z"/>
	<polygon points="671.3,316.2 612,92.5 412,92.5 352.7,316.2 	"/>
	<path d="M368.8,92.5H218.2c-18.2,0.1-35.1,10.4-44.5,27.2L64.3,316.2h245.2L368.8,92.5z"/>
	<path d="M959.7,316.2L850.3,119.7c-9.4-16.8-26.3-27.1-44.5-27.2H655.2l59.3,223.7H959.7z"/>
</g>
</svg>
