<?xml version="1.0" encoding="utf-8"?>
<!-- Generator: Adobe Illustrator 21.0.0, SVG Export Plug-In . SVG Version: 6.00 Build 0)  -->
<svg version="1.1" id="图层_1" xmlns="http://www.w3.org/2000/svg" xmlns:xlink="http://www.w3.org/1999/xlink" x="0px" y="0px"
	 viewBox="0 0 1024 1024" style="enable-background:new 0 0 1024 1024;" xml:space="preserve">
<g>
	<path d="M119.9,959.8V343.6h784.2v616.1H119.9z M609.6,399.7L344,679.7h112c-36.3,90.3-65.9,141.4-99,224
		C466.5,799.2,570.4,728.3,680,623.7H568C586.3,553.6,593.1,463,609.6,399.7z M736,119.6h168v168H736V119.6z M623.9,288H400.1
		c-30.9,0-55.9-25-55.9-55.9V120.1h111.9V64.2H568v55.9h111.9V232C679.8,262.9,654.8,288,623.9,288z M568,176.1H456.1V232H568V176.1
		z M119.9,119.6h168v168h-168V119.6z"/>
</g>
</svg>
